Coordinates
version=1
nRows=9
nColumns=24
inDegrees=yes

Units are S.I. units (second, meters, Newtons, ...)
Angles are in degrees.

endheader
time	pelvis_tilt	pelvis_list	pelvis_rotation	pelvis_tx	pelvis_ty	pelvis_tz	hip_flexion_r	hip_adduction_r	hip_rotation_r	knee_angle_r	ankle_angle_r	subtalar_angle_r	mtp_angle_r	hip_flexion_l	hip_adduction_l	hip_rotation_l	knee_angle_l	ankle_angle_l	subtalar_angle_l	mtp_angle_l	lumbar_extension	lumbar_bending	lumbar_rotation
      2.65000000	     -6.38225257	      0.59397832	    361.63371316	      0.19434826	      1.38708674	     -1.00666124	     15.09354534	      2.11336335	      6.07294876	    -13.20241295	     -1.84220067	     -8.25268336	      3.77643960	     17.18778398	      3.75260260	      4.44683725	    -54.56964338	     -4.05197332	     11.37341634	     45.39829131	     -6.96199933	      5.56685704	      9.71390605
      2.65500000	     -6.47770416	      0.73650206	    361.56959423	      0.19914499	      1.38750703	     -1.00632870	     14.82374930	      1.99031788	      6.12717212	    -13.07613259	     -1.57744017	     -8.12022065	      3.74944350	     17.93268849	      3.82438906	      4.24124485	    -54.63099815	     -3.54529328	     11.44248906	     44.82137620	     -6.91252979	      5.35720020	      9.76670299
      2.66000000	     -6.54018127	      0.87577629	    361.50635907	      0.20391075	      1.38792735	     -1.00601165	     14.52158255	      1.87179875	      6.18727882	    -12.95124296	     -1.32097203	     -8.01112929	      3.71872860	     18.62804417	      3.89328596	      4.04377158	    -54.63015647	     -3.04665859	     11.46927899	     44.20651800	     -6.90290443	      5.15319283	      9.82108313
      2.66500000	     -6.63717398	      1.00977299	    361.44283187	      0.20867048	      1.38829703	     -1.00570241	     14.26663871	      1.76045939	      6.25684517	    -12.84144433	     -1.08255712	     -7.93922432	      3.69671306	     19.34725690	      3.95712715	      3.85186934	    -54.56524608	     -2.57497097	     11.45296216	     43.65016825	     -6.85089768	      4.95420191	      9.87361479
      2.67000000	     -6.73147191	      1.14541156	    361.37938368	      0.21341293	      1.38864293	     -1.00539736	     14.01744932	      1.64972648	      6.33337617	    -12.74445142	     -0.85472029	     -7.89637232	      3.67820306	     20.04538423	      4.02400832	      3.67007086	    -54.43313387	     -2.12087733	     11.40697102	     43.08989387	     -6.80275724	      4.75059473	      9.94033896
      2.67500000	     -6.80845957	      1.27825692	    361.32229371	      0.21813402	      1.38898163	     -1.00511839	     13.75578944	      1.54110980	      6.41369308	    -12.65637318	     -0.63850335	     -7.87975512	      3.66428057	     20.70591897	      4.09260662	      3.50544060	    -54.23312920	     -1.68616594	     11.32458475	     42.53225720	     -6.77579641	      4.54833671	     10.00531674
      2.68000000	     -6.91745262	      1.40411709	    361.26979717	      0.22284287	      1.38925770	     -1.00485434	     13.53992957	      1.44083581	      6.50148529	    -12.58647337	     -0.43190612	     -7.89921467	      3.65157321	     21.38657432	      4.15768212	      3.35534470	    -53.97338840	     -1.27670774	     11.20859340	     42.01926280	     -6.71125735	      4.35667114	     10.05764005
      2.68500000	     -7.01635145	      1.53335192	    361.22217691	      0.22754825	      1.38953436	     -1.00461841	     13.31524625	      1.33508001	      6.59720299	    -12.51979167	     -0.23282763	     -7.92957046	      3.64671422	     22.03018466	      4.23272392	      3.22491293	    -53.63667608	     -0.89879230	     11.05151719	     41.51666152	     -6.65750681	      4.16500813	     10.11331250
      2.69000000	     -7.11510025	      1.65448712	    361.18441217	      0.23223745	      1.38977391	     -1.00441399	     13.09790372	      1.23588393	      6.67613068	    -12.46633337	     -0.03972127	     -7.98698161	      3.64131097	     22.65615910	      4.30416538	      3.11080427	    -53.24090431	     -0.53019497	     10.87878226	     41.02026703	     -6.60567096	      3.98150378	     10.15946758
